<svg xmlns="http://www.w3.org/2000/svg" xml:space="preserve" width="4075px" height="827px" version="1.1" viewBox="0 0 3427.99 695.53" xmlns:xlink="http://www.w3.org/1999/xlink" xmlns:xodm="http://www.corel.com/coreldraw/odm/2003">
 <defs>
  <style type="text/css">
   <![CDATA[
    .fil0 {fill:#0A192F}
    .fil2 {fill:#F5F5F0}
    .fil1 {fill:#F5F5F0;fill-rule:nonzero}
   ]]>
  </style>
 </defs>
 <g id="tlo">
  <metadata id="CorelCorpID_0Corel-Layer"/>
  <polygon class="fil0" points="0,0 3427.99,0 3427.99,695.53 0,695.53 "/>
 </g>
 <g id="nazwa">
  <metadata id="CorelCorpID_1Corel-Layer"/>
  <path class="fil1" d="M1071.39 546.36c-33.83,0 -64.15,-7.98 -90.88,-23.93 -26.64,-16.03 -47.76,-38.73 -63.09,-68.18 -15.43,-29.44 -23.14,-64.32 -23.14,-104.54 0,-40.57 7.71,-75.54 23.14,-105.07 15.33,-29.53 36.45,-52.32 63.09,-68.18 26.73,-15.95 57.05,-23.92 90.88,-23.92 33.73,0 63.97,7.97 90.69,23.92 26.65,15.86 47.76,38.65 63.1,68.18 15.42,29.53 23.14,64.5 23.14,105.07 0,40.4 -7.72,75.36 -23.14,104.81 -15.34,29.44 -36.45,52.05 -63.1,68 -26.72,15.95 -56.96,23.84 -90.69,23.84zm0 -61.08c20.76,0 39.26,-5.17 55.64,-15.69 16.3,-10.43 29.18,-25.68 38.47,-45.92 9.38,-20.15 14.02,-44.87 14.02,-73.96 0,-29.27 -4.64,-53.98 -14.02,-74.31 -9.29,-20.25 -22.17,-35.67 -38.47,-46.1 -16.38,-10.42 -34.88,-15.59 -55.64,-15.59 -20.86,0 -39.44,5.25 -55.83,15.77 -16.29,10.51 -29.18,25.85 -38.64,46.09 -9.38,20.16 -14.11,44.87 -14.11,74.14 0,29.09 4.73,53.72 14.11,73.87 9.46,20.07 22.35,35.41 38.64,45.92 16.39,10.52 34.97,15.78 55.83,15.78zm230.56 55.47l0 -278.32 63.44 0 0 46.44 2.02 0c4.99,-16.03 13.32,-28.3 24.97,-36.8 11.57,-8.5 25.94,-12.71 43.12,-12.71 3.94,0 7.97,0.18 12,0.35 4.12,0.27 7.54,0.7 10.34,1.23l0 58.98c-2.45,-0.44 -6.66,-1.06 -12.62,-1.67 -5.95,-0.53 -12.09,-0.88 -18.22,-0.88 -11.13,0 -21.21,2.46 -30.15,7.45 -9.02,5 -16.12,12.1 -21.29,21.47 -5.26,9.29 -7.89,20.68 -7.89,34l0 160.46 -65.72 0zm199.18 0l0 -278.32 65.73 0 0 278.32 -65.73 0zm32.87 -318.63c-10.96,0 -20.16,-3.51 -27.61,-10.61 -7.45,-7.09 -11.13,-15.86 -11.13,-26.11 0,-10.43 3.68,-19.1 11.13,-26.2 7.45,-7.01 16.65,-10.52 27.61,-10.52 10.95,0 20.15,3.51 27.6,10.52 7.45,7.1 11.22,15.77 11.22,26.2 0,10.25 -3.77,19.02 -11.31,26.11 -7.53,7.1 -16.74,10.61 -27.51,10.61zm218.81 324.5c-27.08,0 -50.74,-5.96 -71.15,-18.05 -20.34,-12.1 -36.11,-28.92 -47.33,-50.57 -11.21,-21.64 -16.82,-46.88 -16.82,-75.62 0,-28.75 5.61,-53.98 16.82,-75.72 11.22,-21.73 26.99,-38.73 47.33,-50.82 20.41,-12.18 44.07,-18.23 71.15,-18.23 27.17,0 50.92,6.05 71.25,18.23 20.24,12.09 36.01,29.09 47.23,50.82 11.22,21.74 16.83,46.97 16.83,75.72 0,28.74 -5.61,53.98 -16.83,75.62 -11.22,21.65 -26.99,38.47 -47.23,50.57 -20.33,12.09 -44.08,18.05 -71.25,18.05zm0 -54.16c14.72,0 27.17,-3.77 37.33,-11.39 10.17,-7.62 17.97,-18.23 23.4,-31.81 5.35,-13.67 8.06,-29.27 8.06,-46.88 0,-17.97 -2.71,-33.74 -8.06,-47.24 -5.43,-13.49 -13.23,-24.18 -23.4,-31.81 -10.16,-7.71 -22.61,-11.56 -37.33,-11.56 -14.55,0 -26.99,3.76 -37.24,11.39 -10.25,7.62 -18.05,18.23 -23.4,31.81 -5.26,13.67 -7.89,29.44 -7.89,47.41 0,17.79 2.63,33.47 7.89,46.97 5.35,13.49 13.15,24.1 23.4,31.72 10.25,7.62 22.69,11.39 37.24,11.39zm251.77 -111.64l0 159.93 -65.73 0 0 -278.32 63.71 0 0.27 70.1 -9.29 0c8.41,-24.44 20.5,-43.02 36.19,-55.73 15.77,-12.62 35.4,-19.02 58.8,-19.02 19.37,0 36.28,4.21 50.83,12.54 14.54,8.23 25.94,20.41 34.17,36.45 8.24,15.95 12.36,35.58 12.36,58.89l0 175.09 -65.73 0 0 -164.84c0,-19.63 -4.81,-34.79 -14.54,-45.3 -9.64,-10.52 -23.22,-15.78 -40.66,-15.78 -11.66,0 -22,2.37 -31.11,7.19 -9.03,4.82 -16.21,12.09 -21.39,21.91 -5.25,9.9 -7.88,22.17 -7.88,36.89zm367.18 165.8c-27.08,0 -50.74,-5.96 -71.16,-18.05 -20.33,-12.1 -36.11,-28.92 -47.32,-50.57 -11.22,-21.64 -16.83,-46.88 -16.83,-75.62 0,-28.75 5.61,-53.98 16.83,-75.72 11.21,-21.73 26.99,-38.73 47.32,-50.82 20.42,-12.18 44.08,-18.23 71.16,-18.23 27.16,0 50.91,6.05 71.24,18.23 20.24,12.09 36.02,29.09 47.23,50.82 11.22,21.74 16.83,46.97 16.83,75.72 0,28.74 -5.61,53.98 -16.83,75.62 -11.21,21.65 -26.99,38.47 -47.23,50.57 -20.33,12.09 -44.08,18.05 -71.24,18.05zm0 -54.16c14.72,0 27.16,-3.77 37.33,-11.39 10.16,-7.62 17.96,-18.23 23.39,-31.81 5.35,-13.67 8.07,-29.27 8.07,-46.88 0,-17.97 -2.72,-33.74 -8.07,-47.24 -5.43,-13.49 -13.23,-24.18 -23.39,-31.81 -10.17,-7.71 -22.61,-11.56 -37.33,-11.56 -14.55,0 -26.99,3.76 -37.25,11.39 -10.25,7.62 -18.05,18.23 -23.4,31.81 -5.25,13.67 -7.88,29.44 -7.88,47.41 0,17.79 2.63,33.47 7.88,46.97 5.35,13.49 13.15,24.1 23.4,31.72 10.26,7.62 22.7,11.39 37.25,11.39zm186.04 48.29l0 -278.32 62.92 0 1.05 63.71 -4.91 0c4.65,-15.6 11.31,-28.4 19.89,-38.56 8.68,-10.08 18.76,-17.62 30.15,-22.52 11.48,-5 23.57,-7.45 36.28,-7.45 20.68,0 38.03,6.13 52.05,18.58 14.02,12.44 23.23,29.53 27.52,51.44l-8.24 0c3.77,-14.9 10.17,-27.52 19.11,-37.95 9.02,-10.43 19.89,-18.4 32.59,-23.92 12.8,-5.43 26.64,-8.15 41.45,-8.15 17.36,0 32.87,3.68 46.54,11.13 13.67,7.45 24.53,18.4 32.6,32.86 8.06,14.46 12.09,32.42 12.09,53.81l0 185.34 -65.73 0 0 -175.88c0,-17.79 -4.99,-30.85 -14.8,-39.17 -9.82,-8.24 -21.65,-12.44 -35.32,-12.44 -10.78,0 -20.07,2.36 -27.95,7.09 -7.89,4.74 -14.03,11.13 -18.41,19.37 -4.29,8.24 -6.48,17.7 -6.48,28.48l0 172.55 -63.97 0 0 -178.68c0,-14.73 -4.56,-26.56 -13.59,-35.41 -9.11,-8.94 -20.76,-13.4 -35.14,-13.4 -9.81,0 -18.75,2.27 -26.99,6.83 -8.23,4.56 -14.72,11.22 -19.63,19.98 -4.9,8.85 -7.36,19.72 -7.36,32.51l0 168.17 -65.72 0zm464.18 0l0 -278.32 65.73 0 0 278.32 -65.73 0zm32.87 -318.63c-10.96,0 -20.16,-3.51 -27.61,-10.61 -7.45,-7.09 -11.13,-15.86 -11.13,-26.11 0,-10.43 3.68,-19.1 11.13,-26.2 7.45,-7.01 16.65,-10.52 27.61,-10.52 10.95,0 20.15,3.51 27.6,10.52 7.45,7.1 11.22,15.77 11.22,26.2 0,10.25 -3.77,19.02 -11.31,26.11 -7.53,7.1 -16.74,10.61 -27.51,10.61zm177.98 323.8c-18.14,0 -34.36,-3.24 -48.64,-9.55 -14.28,-6.31 -25.59,-15.69 -33.91,-28.13 -8.33,-12.36 -12.45,-27.78 -12.45,-46.01 0,-15.77 2.98,-28.83 8.85,-39.08 5.88,-10.26 13.94,-18.49 24.1,-24.63 10.26,-6.13 21.74,-10.87 34.7,-14.02 12.89,-3.16 26.3,-5.52 40.14,-7.01 16.83,-1.93 30.23,-3.51 40.31,-4.91 10.17,-1.4 17.44,-3.5 22,-6.57 4.55,-2.98 6.75,-7.62 6.75,-13.93l0 -1.58c0,-8.59 -1.93,-15.95 -5.88,-22.17 -3.94,-6.31 -9.55,-11.13 -16.91,-14.55 -7.36,-3.42 -16.39,-5.08 -26.99,-5.08 -10.78,0 -20.16,1.66 -28.22,5.08 -8.06,3.42 -14.54,7.98 -19.36,13.76 -4.91,5.69 -8.07,12.09 -9.38,19.1l-62.13 -5.61c3.07,-17.52 9.99,-32.42 20.68,-44.86 10.69,-12.36 24.45,-21.91 41.27,-28.48 16.92,-6.58 36.11,-9.91 57.67,-9.91 15.94,0 30.75,1.93 44.51,5.79 13.85,3.85 25.94,9.64 36.46,17.35 10.51,7.71 18.75,17.53 24.71,29.44 5.87,11.83 8.85,26.03 8.85,42.42l0 187.97 -63.71 0 0 -38.74 -1.75 0c-4.29,7.98 -9.99,15.34 -17.09,22.09 -7.1,6.66 -15.95,11.91 -26.55,15.86 -10.69,3.94 -23.31,5.96 -38.03,5.96zm16.38 -48.81c13.94,0 25.77,-2.63 35.58,-7.8 9.82,-5.26 17.35,-12.27 22.52,-21.12 5.09,-8.76 7.63,-18.4 7.63,-28.83l0 -31.64c-2.02,1.58 -5.26,3.07 -9.73,4.38 -4.47,1.41 -9.64,2.63 -15.51,3.77 -5.96,1.05 -12.01,2.11 -18.23,3.07 -6.22,0.96 -12.18,1.84 -17.87,2.72 -9.56,1.13 -18.32,3.33 -26.21,6.39 -7.8,3.07 -14.11,7.28 -18.66,12.71 -4.65,5.35 -7.01,12.27 -7.01,20.68 0,7.71 2.01,14.2 5.96,19.45 3.94,5.35 9.46,9.38 16.65,12.1 7.18,2.71 15.51,4.12 24.88,4.12z"/>
 </g>
 <g id="logo">
  <metadata id="CorelCorpID_2Corel-Layer"/>
  <polygon class="fil2" points="347.77,198.72 198.72,198.72 198.72,496.81 347.77,496.81 347.77,645.85 49.68,645.85 49.68,49.68 198.72,49.68 "/>
  <polygon class="fil2" points="347.77,198.72 198.72,347.77 347.77,496.81 496.81,347.77 "/>
  <polygon class="fil2" points="347.77,496.81 496.81,645.85 645.85,645.85 645.85,49.68 347.77,49.68 347.77,198.72 496.81,198.72 496.81,496.81 "/>
 </g>
</svg>
